<svg xmlns="http://www.w3.org/2000/svg" width="200" height="200" viewBox="0 0 512 512">
    <path fill="currentColor"
        d="M203.72 87.938c-2.082.017-4.18.31-6.282.874c-13.45 3.608-21.412 17.53-17.782 31.094c1.384 5.172 4.235 9.52 8 12.75c-31.85 15.446-53.498 45.172-59.28 78.72l-22.532 7.593c-11.235-2.877-21.416-4.2-30.53-4.095c-14.696.167-26.65 4.02-35.908 10.97c-18.518 13.896-23.316 38.02-19.53 60.655c3.784 22.636 15.81 45.127 34.343 59.344c18.532 14.216 44.715 18.96 71.03 4.875c4.43-2.373 8.776-4.81 12.813-6.97c2.993 10.772 14.018 17.16 24.75 14.28c10.253-2.75 16.547-12.963 14.656-23.31c16.984 10.05 34.495 15.674 52.186 17.405c-14.094 20.893-32.316 39.57-53.97 54.78c27.754 27.726 224.764-24.853 229.626-61.592c-26.89-2.484-52.525-9.935-75.562-21.563c67.995-43.983 128.655-133.27 160.656-234.563l-42.47 14.344c-44.11 67.313-122.214 103.81-167.155 28a107.922 107.922 0 0 0-53-9.593c1.656-4.69 1.95-9.913.564-15.093c-3.063-11.443-13.392-18.998-24.625-18.906z" />
</svg>