<?xml version="1.0" encoding="UTF-8"?>
<svg version="1.1" xmlns="http://www.w3.org/2000/svg" width="128" height="128">
<path d="M0 0 C7.40842902 5.11098362 8.90345704 16.8364699 11 25 C18.83503453 25.26165236 26.40426498 24.82467598 34.1875 24 C41.10358178 23.29565364 47.98437357 22.74084924 54.9375 22.625 C56.02744263 22.58632813 56.02744263 22.58632813 57.1394043 22.546875 C62.22480007 22.52773223 65.09624432 23.7935564 69 27 C70.75487928 30.50975856 70.52676275 34.16958941 70 38 C66.6709679 44.04157678 60.70925955 46.77326019 54.86328125 50.0703125 C51.43392983 52.35823992 51.43392983 52.35823992 50 56 C50.98023498 59.14890625 50.98023498 59.14890625 52.76171875 62.48828125 C53.221408 63.42041695 53.221408 63.42041695 53.69038391 64.37138367 C54.67467152 66.35951344 55.68030386 68.33589262 56.6875 70.3125 C57.67190049 72.28057627 58.6518419 74.25082121 59.63105774 76.22148132 C60.52776993 78.02011383 61.43487189 79.81355542 62.3425293 81.60668945 C65.96879905 89.03068759 68.75401416 95.55504144 68 104 C66.20437595 106.75329021 64.94745078 108.52627461 62 110 C53.45353553 111.08526533 48.73302655 108.08647644 42 103 C40.88513913 102.01193661 39.77872998 101.01410116 38.6875 100 C36.16852225 97.68345972 36.16852225 97.68345972 33.09277344 98.14038086 C29.60299545 99.1103452 28.29069304 100.1459323 25.828125 102.75390625 C25.08594727 103.52275146 24.34376953 104.29159668 23.57910156 105.08374023 C22.42619629 106.31072632 22.42619629 106.31072632 21.25 107.5625 C19.64939605 109.21439706 18.04526395 110.86288333 16.4375 112.5078125 C15.28894531 113.6839209 15.28894531 113.6839209 14.1171875 114.88378906 C7.79458709 121.20347314 0.72357257 127.93348619 -8.5625 128.4375 C-12.82378508 128.30096641 -15.02515343 127.16077448 -18 124 C-20.73757304 118.52485391 -19.02152737 112.58443237 -17.20947266 107.10424805 C-16.51902993 105.11726507 -15.80929018 103.1382194 -15.09375 101.16015625 C-13.89097652 98.24234682 -13.89097652 98.24234682 -14 96 C-16.41119256 94.29798288 -16.41119256 94.29798288 -19.51953125 92.55078125 C-20.09273605 92.21507614 -20.66594086 91.87937103 -21.2565155 91.53349304 C-23.10451694 90.45280242 -24.95815729 89.38226682 -26.8125 88.3125 C-29.21672142 86.91597047 -31.61853759 85.51535171 -34.01953125 84.11328125 C-34.60954422 83.76944901 -35.19955719 83.42561676 -35.80744934 83.07136536 C-41.29851544 79.85687355 -46.65640732 76.45193326 -52 73 C-52.66064453 72.60941406 -53.32128906 72.21882813 -54.00195312 71.81640625 C-56.53384622 70.12065398 -57.85777151 68.63061604 -58.53125 65.64453125 C-58.79008926 61.26367669 -58.46871304 58.72574922 -56.0625 55 C-47.23310249 49.23386285 -36.98668358 51.1515332 -27 52 C-26.76925781 50.87207031 -26.53851562 49.74414062 -26.30078125 48.58203125 C-24.45600553 39.63967309 -22.5390677 30.7126367 -20.5 21.8125 C-20.31091064 20.95309814 -20.12182129 20.09369629 -19.92700195 19.20825195 C-18.39035702 12.61849586 -16.31761201 6.64869943 -11.8125 1.5 C-7.77344826 -0.65416093 -4.45658044 -1.22260171 0 0 Z " fill="#000000" transform="translate(58,0)"/>
<path d="M0 0 C2.08877451 3.13316177 2.68115697 5.2698307 3.5078125 8.91015625 C3.90419922 10.64168945 3.90419922 10.64168945 4.30859375 12.40820312 C4.57800781 13.61412109 4.84742188 14.82003906 5.125 16.0625 C5.40214844 17.27228516 5.67929687 18.48207031 5.96484375 19.72851562 C8 28.69623615 8 28.69623615 8 31 C8.71317383 30.91959473 9.42634766 30.83918945 10.16113281 30.75634766 C18.43937393 29.82487943 26.71928391 28.90917905 35 28 C36.00595215 27.88833496 37.0119043 27.77666992 38.04833984 27.66162109 C47.72361394 26.59453282 57.24710515 25.64318677 67 26 C64.65825879 28.57348347 62.19697334 30.19412285 59.18359375 31.91796875 C58.25482422 32.44970703 57.32605469 32.98144531 56.36914062 33.52929688 C55.40169922 34.07650391 54.43425781 34.62371094 53.4375 35.1875 C52.46619141 35.74630859 51.49488281 36.30511719 50.49414062 36.88085938 C43.25672505 41 43.25672505 41 41 41 C43.61235404 46.65684408 46.22676923 52.31272939 48.84301758 57.96777344 C49.73094106 59.88776487 50.6183215 61.80800754 51.50512695 63.72851562 C52.78711128 66.50458524 54.07110973 69.27971589 55.35546875 72.0546875 C55.74526413 72.8998996 56.13505951 73.74511169 56.53666687 74.61593628 C56.9166835 75.4360318 57.29670013 76.25612732 57.68823242 77.10107422 C58.24430679 78.30156403 58.24430679 78.30156403 58.81161499 79.52630615 C60.4937282 83.02772451 62.32218193 86.45108281 64.16719055 89.86917114 C65 92 65 92 64 95 C53.86897722 86.88734346 53.86897722 86.88734346 49.99609375 83.140625 C49.04863281 82.22796875 48.10117188 81.3153125 47.125 80.375 C45.82949219 79.08722656 45.82949219 79.08722656 44.5078125 77.7734375 C42.18771198 75.81235386 42.18771198 75.81235386 39.63671875 75.8125 C35.59872722 77.63109174 32.81980291 80.54336381 29.6875 83.625 C28.33926878 84.91742561 26.99031911 86.20910218 25.640625 87.5 C25.00318359 88.11488281 24.36574219 88.72976562 23.70898438 89.36328125 C20.57545939 92.3643029 17.29515108 95.17982565 14 98 C12.84983017 99.00341329 11.70013875 100.00737508 10.55078125 101.01171875 C9.2840693 102.11222684 8.01714043 103.21248529 6.75 104.3125 C6.14663818 104.84117676 5.54327637 105.36985352 4.92163086 105.91455078 C2.08655992 108.363147 -0.48974901 110.56635789 -4 112 C-2.26089428 104.96076255 0.42688684 98.63660187 3.66235352 92.17944336 C5.33306842 88.77315313 6 86.88215259 6 83 C5.26177002 82.60844727 4.52354004 82.21689453 3.76293945 81.81347656 C-8.93861846 75.06740457 -21.62926886 68.31012236 -34.125 61.1875 C-34.99987061 60.69088867 -35.87474121 60.19427734 -36.77612305 59.68261719 C-37.57445557 59.2240332 -38.37278809 58.76544922 -39.1953125 58.29296875 C-39.88641113 57.8961792 -40.57750977 57.49938965 -41.28955078 57.09057617 C-43 56 -43 56 -45 54 C-21.00483611 54.9874945 -21.00483611 54.9874945 -12 56 C-11.87616943 54.8864917 -11.75233887 53.7729834 -11.62475586 52.62573242 C-11.00577422 47.69032686 -10.02501449 42.85402494 -9.00390625 37.98828125 C-8.71349709 36.59140327 -8.71349709 36.59140327 -8.41722107 35.16630554 C-8.00951464 33.2103832 -7.60015115 31.25480561 -7.18920898 29.29956055 C-6.56243788 26.31220393 -5.94402889 23.32319574 -5.32617188 20.33398438 C-4.92758816 18.42697775 -4.52851643 16.52007305 -4.12890625 14.61328125 C-3.94550186 13.7236116 -3.76209747 12.83394196 -3.57313538 11.91731262 C-2.69379364 7.76602728 -1.77237959 3.88266426 0 0 Z " fill="#C6C6C6" transform="translate(51,6)"/>
<path d="M0 0 C2.84075414 2.28418913 3.62918799 4.36586027 4.53515625 7.8515625 C4.78716797 8.78484375 5.03917969 9.718125 5.29882812 10.6796875 C5.55083984 11.65164062 5.80285156 12.62359375 6.0625 13.625 C6.56700011 15.55658732 7.07836207 17.4863998 7.59765625 19.4140625 C7.81945557 20.2695166 8.04125488 21.1249707 8.26977539 22.00634766 C8.81167081 24.19169063 8.81167081 24.19169063 11 25 C13.47605075 24.96084105 15.90672738 24.85371645 18.375 24.6875 C19.12450928 24.64117432 19.87401855 24.59484863 20.64624023 24.54711914 C25.62414625 24.21887742 30.57660042 23.74816575 35.53588867 23.2109375 C42.71105497 22.43441936 49.84203671 21.78157499 57.0625 21.6875 C58.33222656 21.67074219 59.60195312 21.65398438 60.91015625 21.63671875 C64 22 64 22 65.9296875 23.33984375 C67 25 67 25 67.0625 27.875 C65.12138219 33.58417003 60.48839176 35.79326168 55.4375 38.5 C51.63091717 40.58394281 48.47966364 42.32325736 46 46 C47.1003543 53.9965403 51.27163403 60.9210864 54.9375 68 C65.92889198 89.34294084 65.92889198 89.34294084 65 96 C63.875 97.875 63.875 97.875 62 99 C58.1104369 99.47717892 56.35985601 99.21674725 52.96484375 97.171875 C51.96582031 96.37265625 50.96679688 95.5734375 49.9375 94.75 C48.93589844 93.96109375 47.93429688 93.1721875 46.90234375 92.359375 C45.02670458 90.83462929 43.16485822 89.29268604 41.3203125 87.73046875 C39.0642626 85.75998021 39.0642626 85.75998021 35.9375 85.5625 C32.71429836 86.04255131 31.43179175 86.91560707 29 89 C28.34 89 27.68 89 27 89 C26.73703125 89.59941406 26.4740625 90.19882813 26.203125 90.81640625 C24.92828007 93.13016701 23.78090523 94.27304071 21.75 95.9375 C18.95730544 98.28601828 16.24821337 100.68845579 13.60546875 103.203125 C13.00186523 103.77554932 12.39826172 104.34797363 11.77636719 104.93774414 C10.57559075 106.08033107 9.379399 107.22776109 8.18847656 108.38061523 C3.85712191 112.47945099 -0.68433608 116.47250801 -6.75 117.4375 C-9.49122581 116.90448387 -10.27154315 116.15438032 -12 114 C-12.12423628 106.79429568 -9.56341532 100.53854585 -6.90844727 93.94091797 C-5.3190579 89.88224979 -5.3190579 89.88224979 -5.44921875 85.61328125 C-7.6630915 83.31018441 -9.95092625 82.92288612 -13 82 C-15.62842853 80.69819401 -18.15173993 79.22278069 -20.6875 77.75 C-22.0973245 76.94343027 -23.50748267 76.13744348 -24.91796875 75.33203125 C-25.60681152 74.93709473 -26.2956543 74.5421582 -27.00537109 74.13525391 C-31.30033932 71.69074935 -35.65224434 69.34889342 -40 67 C-40 66.34 -40 65.68 -40 65 C-41.0725 64.731875 -42.145 64.46375 -43.25 64.1875 C-48.84232365 62.41659751 -48.84232365 62.41659751 -51 60 C-51.4540012 56.88684891 -51.66604891 54.95335869 -49.82617188 52.31982422 C-47.24804334 50.45654042 -45.49485243 50.73488519 -42.34375 50.8828125 C-40.68666016 50.93115234 -40.68666016 50.93115234 -38.99609375 50.98046875 C-36.66502911 51.07683679 -34.33427397 51.18100695 -32.00390625 51.29296875 C-30.89917969 51.32261719 -29.79445313 51.35226563 -28.65625 51.3828125 C-27.64369141 51.42809082 -26.63113281 51.47336914 -25.58789062 51.52001953 C-22.84855258 51.2472223 -22.84855258 51.2472223 -21.26757812 48.96533203 C-19.75915233 45.43656861 -18.85122672 41.91091807 -18.0625 38.171875 C-17.8962915 37.42343323 -17.73008301 36.67499146 -17.55883789 35.90386963 C-17.03073516 33.52102 -16.51452148 31.13581581 -16 28.75 C-10.5653505 3.77406391 -10.5653505 3.77406391 -7.125 -0.125 C-4.2911429 -1.29188234 -2.86518411 -1.02852763 0 0 Z M-4 1 C-6.86009146 8.78864192 -8.45532196 16.67578773 -10 24.8125 C-11.58823921 33.08871526 -13.22422905 41.28874481 -15.44921875 49.4206543 C-16.00567126 52.02655887 -16.10063995 54.34412375 -16 57 C-17.01984985 56.90912109 -17.01984985 56.90912109 -18.06030273 56.81640625 C-21.18569241 56.54022261 -24.31157668 56.27007394 -27.4375 56 C-29.04141602 55.85691406 -29.04141602 55.85691406 -30.67773438 55.7109375 C-36.81302771 55.18559128 -42.84252506 54.89640421 -49 55 C-46.0987721 57.27087403 -43.13030085 59.13955133 -39.9140625 60.93359375 C-38.40863892 61.77543213 -38.40863892 61.77543213 -36.87280273 62.63427734 C-35.26514038 63.52687256 -35.26514038 63.52687256 -33.625 64.4375 C-31.97576538 65.35716553 -31.97576538 65.35716553 -30.29321289 66.29541016 C-19.56643095 72.26575263 -8.79338748 78.15107842 2 84 C1.42654776 89.58219914 -0.64780385 94.04969038 -3 99.0625 C-6.2428551 105.7861553 -6.2428551 105.7861553 -8 113 C-4.26077871 111.4186938 -1.70350263 109.06769602 1.25 106.3125 C5.11068281 102.73898071 9.00685336 99.22101419 12.98046875 95.7734375 C15.30541377 93.731803 17.58811837 91.64665651 19.875 89.5625 C23.33890229 86.4567481 26.81719066 83.37297758 30.375 80.375 C31.16648437 79.70210938 31.95796875 79.02921875 32.7734375 78.3359375 C35 77 35 77 36.93359375 76.96875 C39.99090881 78.49451782 42.26060146 80.76922933 44.6875 83.125 C49.5683868 87.74166853 54.59356026 91.9997807 60 96 C61.36726609 93.00233145 61.36726609 93.00233145 59.8046875 90.19140625 C59.16946316 88.97754809 58.52539302 87.7682987 57.875 86.5625 C53.74732072 78.62641473 49.94181061 70.55445492 46.1875 62.4375 C45.61898929 61.21231566 45.05046736 59.98713653 44.48193359 58.76196289 C41.91134708 53.20522071 39.36375288 47.6481253 37 42 C37.72018311 41.72816895 38.44036621 41.45633789 39.18237305 41.17626953 C41.96034577 40.01655438 44.47572536 38.68271053 47.08203125 37.1796875 C48.01337891 36.64472656 48.94472656 36.10976563 49.90429688 35.55859375 C50.86400391 35.00300781 51.82371094 34.44742188 52.8125 33.875 C53.79154297 33.31167969 54.77058594 32.74835937 55.77929688 32.16796875 C58.18789555 30.78155585 60.59471395 29.39214945 63 28 C63 27.67 63 27.34 63 27 C52.13612689 26.6127481 41.47169619 27.80616795 30.6875 28.9375 C28.8744019 29.12226503 27.06125106 29.30651333 25.24804688 29.49023438 C23.50255678 29.66880828 21.75711233 29.84782896 20.01171875 30.02734375 C19.21054123 30.10967758 18.40936371 30.19201141 17.58390808 30.27684021 C13.038203 30.75439427 8.52054018 31.32392952 4 32 C3.85900879 31.27409668 3.71801758 30.54819336 3.57275391 29.80029297 C2.92760166 26.49104766 2.27635966 23.18302886 1.625 19.875 C1.40328125 18.73289062 1.1815625 17.59078125 0.953125 16.4140625 C0.62441406 14.75117188 0.62441406 14.75117188 0.2890625 13.0546875 C-0.00943604 11.53077393 -0.00943604 11.53077393 -0.31396484 9.97607422 C-1.02257016 6.90208889 -1.95650259 3.97532534 -3 1 C-3.33 1 -3.66 1 -4 1 Z " fill="#7F7A7A" transform="translate(55,5)"/>
<path d="M0 0 C2.68870822 4.03306233 3.72584197 8.41001415 5.05664062 13.01953125 C6.2755817 17.09785745 7.76521767 20.34898934 10 24 C10.020625 25.0725 10.04125 26.145 10.0625 27.25 C11.54693782 33.18775128 16.05846397 36.59355652 21 40 C23.69495998 40.79800233 23.69495998 40.79800233 26 41 C26 40.34 26 39.68 26 39 C29.96697886 37.19682779 33.6822542 36.50797009 38 36 C37.02160156 35.36384766 37.02160156 35.36384766 36.0234375 34.71484375 C23.86363984 26.55450756 23.86363984 26.55450756 22 22 C22.77328907 17.27786593 24.59283065 15.05554034 28.44140625 12.2734375 C28.99699219 11.89445312 29.55257812 11.51546875 30.125 11.125 C30.68832031 10.7228125 31.25164062 10.320625 31.83203125 9.90625 C33.21184806 8.92400752 34.60467555 7.96008563 36 7 C36.99 7.495 36.99 7.495 38 8 C37.34 8.825 36.68 9.65 36 10.5 C34.07610747 13.47960251 33.23269149 16.09132985 33.4140625 19.71875 C35.27204408 26.9524916 40.70242706 32.98878236 46 38 C50 43.51351351 50 43.51351351 50 46 C51.29572383 48.02456848 52.6273318 50.02678947 54 52 C53.505 52.99 53.505 52.99 53 54 C49.3784481 54 49.0945226 53.39026113 46.625 50.9375 C45.77808594 50.08478516 45.77808594 50.08478516 44.9140625 49.21484375 C43.0578349 47.81335935 43.0578349 47.81335935 40.73046875 47.90234375 C36.57114634 49.57440326 33.85192538 52.51176093 30.6875 55.625 C29.33926878 56.91742561 27.99031911 58.20910218 26.640625 59.5 C26.00318359 60.11488281 25.36574219 60.72976562 24.70898438 61.36328125 C21.57545939 64.3643029 18.29515108 67.17982565 15 70 C13.84983017 71.00341329 12.70013875 72.00737508 11.55078125 73.01171875 C10.2840693 74.11222684 9.01714043 75.21248529 7.75 76.3125 C7.14663818 76.84117676 6.54327637 77.36985352 5.92163086 77.91455078 C3.08655992 80.363147 0.51025099 82.56635789 -3 84 C-1.26089428 76.96076255 1.42688684 70.63660187 4.66235352 64.17944336 C6.33306842 60.77315313 7 58.88215259 7 55 C6.17274414 54.56655273 5.34548828 54.13310547 4.49316406 53.68652344 C1.41122506 52.06722889 -1.66706701 50.44138173 -4.74316406 48.81103516 C-6.07250123 48.10820069 -7.40321771 47.40796839 -8.73535156 46.71044922 C-10.65542604 45.70449091 -12.57026355 44.68912429 -14.484375 43.671875 C-15.63647461 43.0644043 -16.78857422 42.45693359 -17.97558594 41.83105469 C-20.81017698 40.11492353 -22.78814318 38.44071296 -25 36 C-25.66 35.34 -26.32 34.68 -27 34 C-25.95199219 34.10699219 -24.90398438 34.21398437 -23.82421875 34.32421875 C-22.44538686 34.44615626 -21.06647604 34.56720365 -19.6875 34.6875 C-18.65206055 34.79674805 -18.65206055 34.79674805 -17.59570312 34.90820312 C-13.61987587 35.28189256 -13.61987587 35.28189256 -10.08203125 33.70703125 C-8.82435322 31.87440886 -8.82435322 31.87440886 -8 29 C-5.36 29 -2.72 29 0 29 C0.92055082 25.091312 1.13429682 21.44907765 1.125 17.4375 C1.12757812 16.32246094 1.13015625 15.20742188 1.1328125 14.05859375 C1.02089974 11.48130877 0.66658299 9.46163325 0 7 C-0.03888349 4.66699067 -0.0448635 2.33290199 0 0 Z " fill="#918B8B" transform="translate(50,34)"/>
<path d="M0 0 C0.75 1.6875 0.75 1.6875 1 4 C-1.73990765 8.11981271 -4.61208503 10.18729389 -8.9375 12.5 C-15.28510167 15.85211708 -15.28510167 15.85211708 -20 21 C-18.86806178 28.99966424 -14.73239959 35.91329735 -11.0625 43 C-0.07110802 64.34294084 -0.07110802 64.34294084 -1 71 C-2.125 72.875 -2.125 72.875 -4 74 C-7.8895631 74.47717892 -9.64014399 74.21674725 -13.03515625 72.171875 C-14.03417969 71.37265625 -15.03320312 70.5734375 -16.0625 69.75 C-17.06410156 68.96109375 -18.06570312 68.1721875 -19.09765625 67.359375 C-20.97329542 65.83462929 -22.83514178 64.29268604 -24.6796875 62.73046875 C-26.9357374 60.75998021 -26.9357374 60.75998021 -30.0625 60.5625 C-33.28570164 61.04255131 -34.56820825 61.91560707 -37 64 C-37.66 64 -38.32 64 -39 64 C-39.26296875 64.59941406 -39.5259375 65.19882813 -39.796875 65.81640625 C-41.07171993 68.13016701 -42.21909477 69.27304071 -44.25 70.9375 C-47.04269456 73.28601828 -49.75178663 75.68845579 -52.39453125 78.203125 C-52.99813477 78.77554932 -53.60173828 79.34797363 -54.22363281 79.93774414 C-55.42440925 81.08033107 -56.620601 82.22776109 -57.81152344 83.38061523 C-62.14287809 87.47945099 -66.68433608 91.47250801 -72.75 92.4375 C-75 92 -75 92 -76.875 90.8125 C-78 89 -78 89 -77.78125 86.80859375 C-76.81647361 83.34022263 -75.30229636 80.43473992 -73.625 77.25 C-70.87807336 71.94072006 -68.68239459 66.73993448 -67 61 C-72.4041561 55.98118372 -78.56622867 52.79696854 -85.0625 49.375 C-87.19970356 48.2378899 -89.33643932 47.09990003 -91.47265625 45.9609375 C-92.88430054 45.21529541 -92.88430054 45.21529541 -94.32446289 44.45458984 C-96.92923517 43.0384722 -99.46955085 41.54436251 -102 40 C-99 39 -99 39 -96.43139648 40.07641602 C-95.42149658 40.62998779 -94.41159668 41.18355957 -93.37109375 41.75390625 C-92.25283203 42.36169922 -91.13457031 42.96949219 -89.98242188 43.59570312 C-88.80074952 44.25124488 -87.61910906 44.90684414 -86.4375 45.5625 C-84.72336914 46.49545898 -84.72336914 46.49545898 -82.97460938 47.44726562 C-76.21976133 51.14331456 -69.56515533 54.97679805 -63 59 C-63.57565063 64.59460457 -65.65296269 69.09446198 -68 74.125 C-68.73212871 75.70957229 -69.46140232 77.29546757 -70.1875 78.8828125 C-70.51105469 79.57777832 -70.83460937 80.27274414 -71.16796875 80.98876953 C-71.9899668 82.97574722 -72.53477764 84.90356235 -73 87 C-72.071875 86.195625 -71.14375 85.39125 -70.1875 84.5625 C-67.15454508 81.95415877 -64.0583466 79.43971724 -60.9375 76.9375 C-56.43061813 73.2725631 -52.16724789 69.41746189 -47.9375 65.4375 C-43.81985631 61.58229091 -39.69355171 57.75665395 -35.375 54.125 C-34.61960937 53.48820312 -33.86421875 52.85140625 -33.0859375 52.1953125 C-31 51 -31 51 -29.08203125 50.984375 C-26.00466312 52.48553018 -23.74307889 54.76565684 -21.3125 57.125 C-16.4316132 61.74166853 -11.40643974 65.9997807 -6 70 C-7.78777109 65.32671387 -9.90761606 60.82566567 -12.02734375 56.296875 C-12.82768487 54.57692104 -13.62780819 52.85686573 -14.42773438 51.13671875 C-15.68063949 48.44572841 -16.93495735 45.75543335 -18.19311523 43.06689453 C-19.41312762 40.45809618 -20.62692173 37.84647598 -21.83984375 35.234375 C-22.21181381 34.44343445 -22.58378387 33.6524939 -22.96702576 32.83758545 C-25.36320825 27.66171392 -27.31029189 22.44722704 -29 17 C-25.47928939 15.0007529 -21.95548996 13.00707831 -18.42871094 11.01855469 C-17.22895097 10.34105082 -16.03005184 9.66202019 -14.83203125 8.98144531 C-13.11163831 8.0044672 -11.38789591 7.03339468 -9.6640625 6.0625 C-8.62717285 5.47597656 -7.5902832 4.88945313 -6.52197266 4.28515625 C-4 3 -4 3 -2 3 C-2 2.34 -2 1.68 -2 1 C-1.34 0.67 -0.68 0.34 0 0 Z " fill="#2F2F2F" transform="translate(121,30)"/>
<path d="M0 0 C-2.34174121 2.57348347 -4.80302666 4.19412285 -7.81640625 5.91796875 C-8.74517578 6.44970703 -9.67394531 6.98144531 -10.63085938 7.52929688 C-11.59830078 8.07650391 -12.56574219 8.62371094 -13.5625 9.1875 C-14.53380859 9.74630859 -15.50511719 10.30511719 -16.50585938 10.88085938 C-23.74327495 15 -23.74327495 15 -26 15 C-23.38764596 20.65684408 -20.77323077 26.31272939 -18.15698242 31.96777344 C-17.26905894 33.88776487 -16.3816785 35.80800754 -15.49487305 37.72851562 C-14.21288872 40.50458524 -12.92889027 43.27971589 -11.64453125 46.0546875 C-11.05983818 47.32250565 -11.05983818 47.32250565 -10.46333313 48.61593628 C-10.0833165 49.4360318 -9.70329987 50.25612732 -9.31176758 51.10107422 C-8.94105133 51.90140076 -8.57033508 52.70172729 -8.18838501 53.52630615 C-6.5062718 57.02772451 -4.67781807 60.45108281 -2.83280945 63.86917114 C-2 66 -2 66 -3 69 C-4.79275845 67.54300902 -6.58417229 66.08436345 -8.375 64.625 C-9.37273437 63.81289062 -10.37046875 63.00078125 -11.3984375 62.1640625 C-14 60 -14 60 -16 58 C-15.82597656 57.38382813 -15.65195313 56.76765625 -15.47265625 56.1328125 C-14.75929593 53.9542505 -14.75929593 53.9542505 -15.99609375 51.9296875 C-16.47175781 51.25164062 -16.94742188 50.57359375 -17.4375 49.875 C-20 46.17438692 -20 46.17438692 -20 44 C-22.31686691 40.49160154 -24.49011908 37.4971339 -27.5 34.5625 C-29.53324558 32.47842328 -31.16897995 30.56713185 -32.8125 28.1875 C-33.23144531 27.58292969 -33.65039062 26.97835937 -34.08203125 26.35546875 C-35 24 -35 24 -35 16 C-29.72 13.36 -24.44 10.72 -19 8 C-26.55162885 7.05604639 -33.10198316 7.11317488 -40.625 7.625 C-42.42710938 7.71201172 -42.42710938 7.71201172 -44.265625 7.80078125 C-51.15839309 8.26692189 -55.29958157 8.75657295 -60 14 C-60.66 12.68 -61.32 11.36 -62 10 C-60.75 7.60546875 -60.75 7.60546875 -58 5 C-54.05487881 3.93258003 -50.06442653 3.64834784 -46 3.3125 C-44.25952393 3.1427063 -44.25952393 3.1427063 -42.48388672 2.96948242 C-40.11739802 2.74011606 -37.75001503 2.51979387 -35.38183594 2.30859375 C-32.33563696 2.03062699 -29.29760599 1.71502646 -26.2578125 1.375 C-17.48017878 0.40306231 -8.84648635 -0.32365194 0 0 Z " fill="#F9F9F9" transform="translate(118,32)"/>
<path d="M0 0 C2.30238646 3.45357969 2.94676917 6.62422694 3.6875 10.625 C3.82196533 11.33978516 3.95643066 12.05457031 4.0949707 12.79101562 C5.0198502 18.12160783 5.04953238 22.65692606 4 28 C3.67 28 3.34 28 3 28 C2.34 25.36 1.68 22.72 1 20 C0.13558243 23.45767028 -0.13464292 25.98997714 -0.125 29.5 C-0.12757812 30.4384375 -0.13015625 31.376875 -0.1328125 32.34375 C-0.09306433 34.90408628 -0.09306433 34.90408628 0.49609375 36.94140625 C1.19404719 39.79273543 1.17055338 42.5057342 1.1875 45.4375 C1.20167969 46.54996094 1.21585938 47.66242187 1.23046875 48.80859375 C1.00247902 51.96567188 0.34441009 54.15707747 -1 57 C-3.64 57 -6.28 57 -9 57 C-9.103125 57.598125 -9.20625 58.19625 -9.3125 58.8125 C-10.14503149 61.46146383 -10.73824698 62.379077 -13 64 C-16.13671875 64.07421875 -16.13671875 64.07421875 -19.6875 63.6875 C-20.86699219 63.56761719 -22.04648437 63.44773438 -23.26171875 63.32421875 C-24.16535156 63.21722656 -25.06898437 63.11023438 -26 63 C-25.01 63.99 -24.02 64.98 -23 66 C-28.26122171 64.48968084 -32.67232586 62.09625809 -37.375 59.375 C-38.11105469 58.95476562 -38.84710938 58.53453125 -39.60546875 58.1015625 C-41.4063765 57.07247236 -43.20357318 56.03689244 -45 55 C-45 54.67 -45 54.34 -45 54 C-21.00483611 54.9874945 -21.00483611 54.9874945 -12 56 C-11.87616943 54.8864917 -11.75233887 53.7729834 -11.62475586 52.62573242 C-11.00577422 47.69032686 -10.02501449 42.85402494 -9.00390625 37.98828125 C-8.71349709 36.59140327 -8.71349709 36.59140327 -8.41722107 35.16630554 C-8.00951464 33.2103832 -7.60015115 31.25480561 -7.18920898 29.29956055 C-6.56243788 26.31220393 -5.94402889 23.32319574 -5.32617188 20.33398438 C-4.92758816 18.42697775 -4.52851643 16.52007305 -4.12890625 14.61328125 C-3.94550186 13.7236116 -3.76209747 12.83394196 -3.57313538 11.91731262 C-2.69379364 7.76602728 -1.77237959 3.88266426 0 0 Z " fill="#F4F4F4" transform="translate(51,6)"/>
<path d="M0 0 C2.30858036 2.30858036 2.61276198 3.63463757 3.4375 6.75390625 C3.82035156 8.15866211 3.82035156 8.15866211 4.2109375 9.59179688 C4.73794841 11.57591468 5.26398664 13.5602911 5.7890625 15.54492188 C6.04429688 16.48013672 6.29953125 17.41535156 6.5625 18.37890625 C6.79066406 19.2407251 7.01882812 20.10254395 7.25390625 20.99047852 C7.81017316 23.18960356 7.81017316 23.18960356 10 24 C12.47605075 23.96084105 14.90672738 23.85371645 17.375 23.6875 C18.49926392 23.61801147 18.49926392 23.61801147 19.64624023 23.54711914 C25.47005166 23.16309866 31.26099222 22.56722098 37.0625 21.9375 C45.74825696 20.99852201 54.26650099 20.78044276 63 21 C63.99 22.98 63.99 22.98 65 25 C64.34 25 63.68 25 63 25 C62.67 25.66 62.34 26.32 62 27 C61.36940674 26.97679688 60.73881348 26.95359375 60.08911133 26.9296875 C49.87037488 26.73148878 39.82983478 27.90759347 29.6875 29 C26.98723137 29.28797711 24.28680422 29.57408014 21.58589172 29.85595703 C19.91816705 30.0302614 18.25080623 30.20809785 16.58390808 30.39013672 C12.02550744 30.86947661 7.58367123 31.08535559 3 31 C0.76137411 26.1698117 -0.1146419 21.12774697 -1.125 15.9375 C-1.30675781 15.03966797 -1.48851562 14.14183594 -1.67578125 13.21679688 C-2.44038431 9.35066484 -3 5.9656382 -3 2 C-2.01 1.34 -1.02 0.68 0 0 Z " fill="#272727" transform="translate(56,6)"/>
<path d="M0 0 C1.32 0.33 2.64 0.66 4 1 C4 2.65 4 4.3 4 6 C3.15179688 6.36609375 2.30359375 6.7321875 1.4296875 7.109375 C-2.62503156 9.34455042 -5.56867716 12.04949766 -8.875 15.25 C-10.12169171 16.43173285 -11.36908128 17.61272995 -12.6171875 18.79296875 C-13.20725586 19.35419434 -13.79732422 19.91541992 -14.40527344 20.49365234 C-17.51597954 23.43196475 -20.75356209 26.21404973 -24 29 C-25.15135767 30.00484637 -26.30236481 31.01009444 -27.453125 32.015625 C-28.7185246 33.11484286 -29.98415142 34.2137992 -31.25 35.3125 C-31.85328125 35.84109619 -32.4565625 36.36969238 -33.078125 36.91430664 C-35.91326034 39.3630124 -38.48963806 41.56631258 -42 43 C-39.7384246 33.41186264 -35.29793681 24.80005115 -31 16 C-29.68 16 -28.36 16 -27 16 C-27 17.65 -27 19.3 -27 21 C-26.34 20.67 -25.68 20.34 -25 20 C-25.33 20.804375 -25.66 21.60875 -26 22.4375 C-27.06059041 24.69681125 -27.06059041 24.69681125 -27 26 C-22.27732109 20.29080594 -17.58425962 14.59949964 -13.2890625 8.55859375 C-12 7 -12 7 -9 5 C-6.73828125 4.8046875 -6.73828125 4.8046875 -4.3125 4.875 C-3.10013672 4.90207031 -3.10013672 4.90207031 -1.86328125 4.9296875 C-0.94095703 4.96449219 -0.94095703 4.96449219 0 5 C0 3.35 0 1.7 0 0 Z " fill="#F1F1F1" transform="translate(89,75)"/>
<path d="M0 0 C3.94202848 0.60013502 6.89685863 1.82018104 10.38671875 3.73046875 C11.40830078 4.28669922 12.42988281 4.84292969 13.48242188 5.41601562 C15.06893555 6.29290039 15.06893555 6.29290039 16.6875 7.1875 C17.72583984 7.75275391 18.76417969 8.31800781 19.83398438 8.90039062 C26.31740671 12.44899733 32.69465258 16.14414889 39 20 C38.42434937 25.59460457 36.34703731 30.09446198 34 35.125 C33.26787129 36.70957229 32.53859768 38.29546757 31.8125 39.8828125 C31.48894531 40.57777832 31.16539063 41.27274414 30.83203125 41.98876953 C30.0100332 43.97574722 29.46522236 45.90356235 29 48 C29.45890625 47.60167969 29.9178125 47.20335937 30.390625 46.79296875 C32.2522698 45.18554015 34.12515727 43.59200008 36 42 C36.7425 41.360625 37.485 40.72125 38.25 40.0625 C38.8275 39.711875 39.405 39.36125 40 39 C40.99 39.33 41.98 39.66 43 40 C42.01 41.32 41.02 42.64 40 44 C40.88300781 43.16597656 41.76601563 42.33195312 42.67578125 41.47265625 C49.17351342 35.36864337 55.70254716 29.43916859 62.6953125 23.90234375 C65.05245359 22.03255653 65.05245359 22.03255653 67.1328125 19.76953125 C69 18 69 18 71.75 17.75 C72.4925 17.8325 73.235 17.915 74 18 C74.495 19.485 74.495 19.485 75 21 C73.7625 21.28875 72.525 21.5775 71.25 21.875 C66.91470955 22.93507599 66.91470955 22.93507599 63 25 C62.70351562 25.62261719 62.40703125 26.24523437 62.1015625 26.88671875 C60.89494034 29.20155063 59.75888927 30.29108423 57.75 31.9375 C54.95730544 34.28601828 52.24821337 36.68845579 49.60546875 39.203125 C49.00186523 39.77554932 48.39826172 40.34797363 47.77636719 40.93774414 C46.57559075 42.08033107 45.379399 43.22776109 44.18847656 44.38061523 C39.85712191 48.47945099 35.31566392 52.47250801 29.25 53.4375 C27 53 27 53 25.125 51.8125 C24 50 24 50 24.21875 47.80859375 C25.18352639 44.34022263 26.69770364 41.43473992 28.375 38.25 C31.12192664 32.94072006 33.31760541 27.73993448 35 22 C29.5958439 16.98118372 23.43377133 13.79696854 16.9375 10.375 C14.80029644 9.2378899 12.66356068 8.09990003 10.52734375 6.9609375 C9.58624756 6.46384277 8.64515137 5.96674805 7.67553711 5.45458984 C5.06705258 4.03645399 2.50184384 2.59947909 0 1 C0 0.67 0 0.34 0 0 Z " fill="#202020" transform="translate(19,69)"/>
<path d="M0 0 C-2.5988655 3.03656917 -5.62071728 4.46163739 -9.1875 6.1875 C-10.27417969 6.71730469 -11.36085937 7.24710938 -12.48046875 7.79296875 C-13.31191406 8.19128906 -14.14335938 8.58960938 -15 9 C-15.495 8.01 -15.495 8.01 -16 7 C-24.29512538 6.89561238 -32.53360715 7.1714962 -40.8125 7.6875 C-42.00037109 7.74099609 -43.18824219 7.79449219 -44.41210938 7.84960938 C-51.27387165 8.29217957 -55.31433724 8.79277335 -60 14 C-60.66 12.68 -61.32 11.36 -62 10 C-60.75 7.60546875 -60.75 7.60546875 -58 5 C-54.05487881 3.93258003 -50.06442653 3.64834784 -46 3.3125 C-44.25952393 3.1427063 -44.25952393 3.1427063 -42.48388672 2.96948242 C-40.11739802 2.74011606 -37.75001503 2.51979387 -35.38183594 2.30859375 C-32.33563696 2.03062699 -29.29760599 1.71502646 -26.2578125 1.375 C-17.48017878 0.40306231 -8.84648635 -0.32365194 0 0 Z " fill="#F9F9F9" transform="translate(118,32)"/>
<path d="M0 0 C5.85272256 0.45020943 10.08220119 3.03839227 15 6 C14.67 6.66 14.34 7.32 14 8 C14.71542969 8.3623877 15.43085938 8.72477539 16.16796875 9.09814453 C19.44937238 10.76590837 22.72466919 12.44534318 26 14.125 C27.68802734 14.97964844 27.68802734 14.97964844 29.41015625 15.8515625 C44.87254266 23.80881398 44.87254266 23.80881398 49 30 C48.27734375 32.56640625 48.27734375 32.56640625 46.9375 35.5625 C46.46570312 36.62210938 45.99390625 37.68171875 45.5078125 38.7734375 C45.01023438 39.83820313 44.51265625 40.90296875 44 42 C43.54367188 42.98226562 43.08734375 43.96453125 42.6171875 44.9765625 C39.31214421 51.84392789 39.31214421 51.84392789 37 53 C37.41394938 51.58253696 37.83140497 50.16609807 38.25 48.75 C38.51683594 47.84507813 38.78367188 46.94015625 39.05859375 46.0078125 C39.71069737 43.9243279 40.41508684 41.85676419 41.16015625 39.8046875 C41.54042969 38.75539062 41.92070313 37.70609375 42.3125 36.625 C42.67988281 35.64789063 43.04726563 34.67078125 43.42578125 33.6640625 C44.18350047 31.06981883 44.18350047 31.06981883 43.48046875 28.7734375 C41.36300423 26.23694966 39.14777132 25.95275966 36 25 C33.37157147 23.69819401 30.84826007 22.22278069 28.3125 20.75 C26.9026755 19.94343027 25.49251733 19.13744348 24.08203125 18.33203125 C23.04876709 17.73962646 23.04876709 17.73962646 21.99462891 17.13525391 C17.69966068 14.69074935 13.34775566 12.34889342 9 10 C9 9.34 9 8.68 9 8 C7.9275 7.7525 6.855 7.505 5.75 7.25 C2.00350563 6.00116854 0.47926118 4.97511342 -2 2 C-1.34 2 -0.68 2 0 2 C0 1.34 0 0.68 0 0 Z " fill="#393838" transform="translate(6,62)"/>
<path d="M0 0 C0.66 0 1.32 0 2 0 C-1.48098651 17.70864277 -5.17461085 35.3627967 -9 53 C-15.98146437 53.11881939 -22.75973822 52.86232863 -29.6875 52 C-30.90083008 51.85691406 -30.90083008 51.85691406 -32.13867188 51.7109375 C-34.09312878 51.47964082 -36.04667562 51.24067363 -38 51 C-36 49 -36 49 -33.66162109 48.77294922 C-32.70852051 48.78342285 -31.75541992 48.79389648 -30.7734375 48.8046875 C-29.2265625 48.81435547 -29.2265625 48.81435547 -27.6484375 48.82421875 C-26.56820313 48.84097656 -25.48796875 48.85773437 -24.375 48.875 C-23.28703125 48.88402344 -22.1990625 48.89304688 -21.078125 48.90234375 C-18.38519848 48.92596591 -15.69270745 48.95890444 -13 49 C-9.90818692 43.65878088 -8.78042032 38.26360573 -7.5625 32.25 C-7.13184573 30.19914831 -6.70085162 28.14836796 -6.26953125 26.09765625 C-6.0576416 25.07687988 -5.84575195 24.05610352 -5.62744141 23.00439453 C-4.69897241 18.55858151 -3.72975914 14.1222474 -2.75 9.6875 C-2.58701416 8.9356543 -2.42402832 8.18380859 -2.25610352 7.40917969 C-1.11562516 2.23125033 -1.11562516 2.23125033 0 0 Z " fill="#282828" transform="translate(48,9)"/>
<path d="M0 0 C0.66 0.33 1.32 0.66 2 1 C1.67 1.33 1.34 1.66 1 2 C-0.07438472 9.27743613 3.40627187 14.77269528 6.625 21.125 C7.72689024 23.36181775 8.82845607 25.59879533 9.9296875 27.8359375 C10.953019 29.8906778 11.97644586 31.9453706 13 34 C14.26892527 36.57532936 15.51628217 39.15740457 16.75 41.75 C17.19859375 42.67296875 17.6471875 43.5959375 18.109375 44.546875 C19.06992269 47.19259408 19.18080226 49.20760955 19 52 C16 51 16 51 14.9246521 49.34341431 C14.59679718 48.62632294 14.26894226 47.90923157 13.93115234 47.17041016 C13.55421234 46.35931793 13.17727234 45.54822571 12.78890991 44.71255493 C12.39192902 43.83030243 11.99494812 42.94804993 11.5859375 42.0390625 C11.17082916 41.13755463 10.75572083 40.23604675 10.32803345 39.30722046 C9.00054163 36.41752886 7.68786398 33.5213622 6.375 30.625 C5.48269236 28.67926463 4.58947437 26.73394646 3.6953125 24.7890625 C2.06154308 21.2245902 0.42931443 17.65947093 -1.18994141 14.08837891 C-1.51620514 13.36969635 -1.84246887 12.65101379 -2.17861938 11.91055298 C-3.56723473 8.68059705 -4.09751151 7.37504428 -3.1875 3.875 C-2 1 -2 1 0 0 Z " fill="#4E4E4E" transform="translate(98,46)"/>
<path d="M0 0 C0.7425 0.0825 1.485 0.165 2.25 0.25 C2.745 1.735 2.745 1.735 3.25 3.25 C2.0125 3.53875 0.775 3.8275 -0.5 4.125 C-4.83529045 5.18507599 -4.83529045 5.18507599 -8.75 7.25 C-9.04648438 7.87261719 -9.34296875 8.49523437 -9.6484375 9.13671875 C-10.85505966 11.45155063 -11.99111073 12.54108423 -14 14.1875 C-16.79269456 16.53601828 -19.50178663 18.93845579 -22.14453125 21.453125 C-22.74813477 22.02554932 -23.35173828 22.59797363 -23.97363281 23.18774414 C-25.17440925 24.33033107 -26.370601 25.47776109 -27.56152344 26.63061523 C-31.90352591 30.7395272 -36.50818863 34.97410116 -42.6875 35.5 C-43.368125 35.4175 -44.04875 35.335 -44.75 35.25 C-42.56781061 31.16836336 -40.04492732 28.46766403 -36.5625 25.4375 C-35.66144531 24.64730469 -34.76039062 23.85710937 -33.83203125 23.04296875 C-33.14496094 22.45128906 -32.45789062 21.85960938 -31.75 21.25 C-30.76 21.58 -29.77 21.91 -28.75 22.25 C-29.74 23.57 -30.73 24.89 -31.75 26.25 C-30.42548828 24.99896484 -30.42548828 24.99896484 -29.07421875 23.72265625 C-22.57648658 17.61864337 -16.04745284 11.68916859 -9.0546875 6.15234375 C-6.69754641 4.28255653 -6.69754641 4.28255653 -4.6171875 2.01953125 C-2.75 0.25 -2.75 0.25 0 0 Z " fill="#161616" transform="translate(90.75,86.75)"/>
<path d="M0 0 C0.66 1.32 1.32 2.64 2 4 C1.34 4 0.68 4 0 4 C-0.33 4.66 -0.66 5.32 -1 6 C-3.475 5.505 -3.475 5.505 -6 5 C-6 4.67 -6 4.34 -6 4 C-14.25249297 3.86711853 -22.34636268 4.24799733 -30.5625 5 C-38.40294263 5.71496335 -46.12461064 6.14061452 -54 6 C-54 5.34 -54 4.68 -54 4 C-48.88238654 3.4190149 -43.76361988 2.84998301 -38.64355469 2.29101562 C-36.90948494 2.10012062 -35.17574363 1.90621291 -33.44238281 1.70898438 C-22.23493861 0.43629662 -11.28517448 -0.2837055 0 0 Z " fill="#7A7474" transform="translate(119,27)"/>
<path d="M0 0 C2.30057776 2.30057776 2.61022396 3.61295946 3.4375 6.71875 C3.82035156 8.11673828 3.82035156 8.11673828 4.2109375 9.54296875 C4.73697917 11.51432292 5.26302083 13.48567708 5.7890625 15.45703125 C6.04429688 16.38902344 6.29953125 17.32101563 6.5625 18.28125 C6.79066406 19.13783203 7.01882812 19.99441406 7.25390625 20.87695312 C7.89108962 23.1795371 7.89108962 23.1795371 10 25 C9.67 25.66 9.34 26.32 9 27 C8.236875 26.835 7.47375 26.67 6.6875 26.5 C3.96403764 25.90854604 3.96403764 25.90854604 1 26 C0.32698711 22.75128084 -0.3372951 19.50083621 -1 16.25 C-1.19078125 15.32960938 -1.3815625 14.40921875 -1.578125 13.4609375 C-1.75859375 12.57148438 -1.9390625 11.68203125 -2.125 10.765625 C-2.29257812 9.94868164 -2.46015625 9.13173828 -2.6328125 8.29003906 C-3 6 -3 6 -3 2 C-2.01 1.34 -1.02 0.68 0 0 Z " fill="#363636" transform="translate(56,6)"/>
<path d="M0 0 C1.32 0 2.64 0 4 0 C2.1030572 10.34696072 -0.72478314 20.07191147 -9 27 C-9.66 26.67 -10.32 26.34 -11 26 C-7.98884736 17.00394769 -4.10075164 8.53555327 0 0 Z " fill="#F6F6F6" transform="translate(58,91)"/>
<path d="M0 0 C1.32 0.33 2.64 0.66 4 1 C4 2.65 4 4.3 4 6 C2.85144531 6.36996094 1.70289062 6.73992187 0.51953125 7.12109375 C-4.4085785 8.97008492 -8.20682048 11.82525505 -12.3125 15.0625 C-13.7040778 16.13717119 -15.09599153 17.21140755 -16.48828125 18.28515625 C-17.39380737 18.99490601 -17.39380737 18.99490601 -18.31762695 19.71899414 C-19.83393131 20.87355066 -21.41425541 21.94283694 -23 23 C-21.40536835 19.52304543 -19.35978788 16.53668697 -17.125 13.4375 C-16.44695312 12.48746094 -15.76890625 11.53742188 -15.0703125 10.55859375 C-10.74816647 5.21707365 -10.74816647 5.21707365 -6.640625 4.70703125 C-5.45726562 4.75923828 -5.45726562 4.75923828 -4.25 4.8125 C-3.05117187 4.85310547 -3.05117187 4.85310547 -1.828125 4.89453125 C-0.92320313 4.94673828 -0.92320313 4.94673828 0 5 C0 3.35 0 1.7 0 0 Z " fill="#C5C5C5" transform="translate(89,75)"/>
<path d="M0 0 C8.09182751 2.12942829 15.0390121 6.26723071 20 13 C11.39935414 34.30032293 11.39935414 34.30032293 8 36 C8.41394938 34.58253696 8.83140497 33.16609807 9.25 31.75 C9.51683594 30.84507813 9.78367187 29.94015625 10.05859375 29.0078125 C10.71069737 26.9243279 11.41508684 24.85676419 12.16015625 22.8046875 C12.54042969 21.75539063 12.92070313 20.70609375 13.3125 19.625 C13.67988281 18.64789063 14.04726563 17.67078125 14.42578125 16.6640625 C15.22882699 14.03283109 15.22882699 14.03283109 14.23046875 11.6796875 C13.13361768 9.80698961 13.13361768 9.80698961 11 9.5 C10.34 9.335 9.68 9.17 9 9 C8.5978125 8.1028125 8.5978125 8.1028125 8.1875 7.1875 C6.32830113 3.76265997 3.41854735 2.77258011 0 1 C0 0.67 0 0.34 0 0 Z " fill="#414141" transform="translate(35,79)"/>
<path d="M0 0 C1.6875 0.9375 1.6875 0.9375 2.6875 2.9375 C1.66140625 2.9890625 0.6353125 3.040625 -0.421875 3.09375 C-5.06566162 4.10083625 -7.34711225 6.15762452 -10.5625 9.4375 C-11.69016528 10.5351707 -12.82041485 11.63019222 -13.953125 12.72265625 C-14.79327148 13.53887451 -14.79327148 13.53887451 -15.65039062 14.37158203 C-18.88908072 17.42283912 -22.38687234 20.14268178 -25.875 22.90234375 C-28.51569224 25.10715249 -30.91339661 27.47413492 -33.3125 29.9375 C-33.9725 29.6075 -34.6325 29.2775 -35.3125 28.9375 C-34.3225 28.0403125 -34.3225 28.0403125 -33.3125 27.125 C-30.9751154 25.06248166 -30.9751154 25.06248166 -31.3125 21.9375 C-29.30078125 19.74609375 -29.30078125 19.74609375 -26.625 17.375 C-25.75488281 16.58996094 -24.88476562 15.80492188 -23.98828125 14.99609375 C-21.42488362 13.02396156 -19.31265776 12.05406357 -16.3125 10.9375 C-14.26808452 9.63196541 -14.26808452 9.63196541 -12.375 8.125 C-11.69050781 7.60164063 -11.00601563 7.07828125 -10.30078125 6.5390625 C-8.49248881 5.08248117 -6.78221064 3.55862382 -5.0625 2 C-2.3125 -0.0625 -2.3125 -0.0625 0 0 Z " fill="#373737" transform="translate(92.3125,84.0625)"/>
<path d="M0 0 C5.10078437 0.5000769 9.25923109 1.25923109 13 5 C13.04063832 6.66617115 13.042721 8.33388095 13 10 C10.8865327 11.28317658 9.49911402 12.01559731 7 11.9375 C4.02299065 10.54202687 2.76911819 8.7451834 1 6 C0.25 2.6875 0.25 2.6875 0 0 Z " fill="#FCFCFC" transform="translate(63,58)"/>
<path d="M0 0 C3.03586764 0.32673015 3.96060121 0.9571817 6.0703125 3.25 C6.74835938 4.1575 7.42640625 5.065 8.125 6 C10.60066255 9.54672723 10.60066255 9.54672723 14 12 C15.10546875 13.7421875 15.10546875 13.7421875 16.1875 15.875 C16.55230469 16.57367188 16.91710937 17.27234375 17.29296875 17.9921875 C18 20 18 20 17 23 C15.20724155 21.54300902 13.41582771 20.08436345 11.625 18.625 C10.62726563 17.81289062 9.62953125 17.00078125 8.6015625 16.1640625 C6 14 6 14 4 12 C4.17402344 11.38640625 4.34804687 10.7728125 4.52734375 10.140625 C5.23898671 7.94700651 5.23898671 7.94700651 4.00390625 5.859375 C3.52824219 5.16328125 3.05257812 4.4671875 2.5625 3.75 C2.08941406 3.04359375 1.61632812 2.3371875 1.12890625 1.609375 C0.75636719 1.07828125 0.38382812 0.5471875 0 0 Z " fill="#C2C1C1" transform="translate(98,78)"/>
<path d="M0 0 C7.26999408 -0.15395282 14.43936948 0.27678535 21.6796875 0.87890625 C24.46712913 0.98056589 26.39259578 0.88442103 29 0 C27.84826645 2.46800047 26.95216435 4.04783565 25 6 C21.9609375 5.9765625 21.9609375 5.9765625 18.375 5.625 C17.18648437 5.51414062 15.99796875 5.40328125 14.7734375 5.2890625 C13.85820312 5.19367188 12.94296875 5.09828125 12 5 C12.99 5.99 13.98 6.98 15 8 C9.52067211 6.45454854 4.88570819 3.84456788 0 1 C0 0.67 0 0.34 0 0 Z " fill="#C3C2C2" transform="translate(13,64)"/>
<path d="M0 0 C-1.20381448 2.49361571 -2.45428722 4.68143083 -4 7 C-4.5 10.5 -4.5 10.5 -4 14 C-2.13875077 15.98239527 -2.13875077 15.98239527 0 17 C-0.515625 16.0925 -1.03125 15.185 -1.5625 14.25 C-3.07262544 10.83580335 -3.08784335 10.31395986 -2 7 C-0.99267601 8.93370231 0.00563288 10.87210306 1 12.8125 C1.8353125 14.43091797 1.8353125 14.43091797 2.6875 16.08203125 C4 19 4 19 4 22 C-2.24954868 19.95933104 -6.62402218 16.76546861 -10 11 C-9.79342502 7.48822539 -8.99355352 6.03166242 -6.57421875 3.51953125 C-2.60119048 0 -2.60119048 0 0 0 Z " fill="#8D8787" transform="translate(82,45)"/>
<path d="M0 0 C2 1.0625 2 1.0625 4 3 C4.75723323 7.45926237 4.37144601 9.41469114 1.9375 13.25 C-0.99927031 16.37084139 -3.93198938 17.71932999 -8 19 C-8.99 18.67 -9.98 18.34 -11 18 C-10.01 17.34 -9.02 16.68 -8 16 C-8.99 15.67 -9.98 15.34 -11 15 C-11 14.34 -11 13.68 -11 13 C-8.69 13 -6.38 13 -4 13 C-1.55302334 8.63799813 -0.49730652 4.97306516 0 0 Z " fill="#656464" transform="translate(54,51)"/>
<path d="M0 0 C0.66 0.33 1.32 0.66 2 1 C2 1.99 2 2.98 2 4 C-0.37191584 5.29761299 -2.74724614 6.58816317 -5.125 7.875 C-5.79015625 8.23980469 -6.4553125 8.60460938 -7.140625 8.98046875 C-11.01538929 11.06980244 -14.75687369 12.74424611 -19 14 C-19.33 15.65 -19.66 17.3 -20 19 C-20.66 18.67 -21.32 18.34 -22 18 C-22.625 15.4375 -22.625 15.4375 -23 13 C-19.21571557 10.79953501 -15.42146632 8.61686959 -11.625 6.4375 C-10.54476562 5.80908203 -9.46453125 5.18066406 -8.3515625 4.53320312 C-7.3203125 3.94345703 -6.2890625 3.35371094 -5.2265625 2.74609375 C-4.27346191 2.19622803 -3.32036133 1.6463623 -2.33837891 1.07983398 C-1.18088135 0.54531616 -1.18088135 0.54531616 0 0 Z " fill="#363636" transform="translate(115,34)"/>
<path d="M0 0 C3.38638018 1.24033424 5.72674978 3.85474492 8.28833008 6.30908203 C8.84262695 6.82921875 9.39692383 7.34935547 9.96801758 7.88525391 C11.33089836 9.16589188 12.68544691 10.45538693 14.03833008 11.74658203 C9.32152493 11.74658203 6.93752559 8.42234278 3.51098633 5.39892578 C1.26107112 3.57211635 1.26107112 3.57211635 -0.93041992 3.71533203 C-4.90958309 5.73552256 -8.05645893 8.90229405 -11.40307617 11.81298828 C-13.96166992 13.74658203 -13.96166992 13.74658203 -16.96166992 13.74658203 C-6.06418311 -0.78340038 -6.06418311 -0.78340038 0 0 Z " fill="#292828" transform="translate(91.961669921875,81.25341796875)"/>
<path d="M0 0 C0 1.98 0 3.96 0 6 C-9.77790574 6.38767027 -19.31756984 5.1929947 -29 4 C-27 2 -27 2 -24.70922852 1.8046875 C-23.30821899 1.83949219 -23.30821899 1.83949219 -21.87890625 1.875 C-20.86119141 1.89046875 -19.84347656 1.9059375 -18.79492188 1.921875 C-16.64387793 1.97386398 -14.49283625 2.02594697 -12.34179688 2.078125 C-11.32279297 2.09359375 -10.30378906 2.1090625 -9.25390625 2.125 C-7.85120483 2.15980469 -7.85120483 2.15980469 -6.42016602 2.1953125 C-3.78305364 1.98249197 -2.39722023 0 0 0 Z " fill="#1C1C1C" transform="translate(39,56)"/>
<path d="M0 0 C0.75 1.6875 0.75 1.6875 1 4 C-1.73990765 8.11981271 -4.61208503 10.18729389 -8.9375 12.5 C-13.87650524 15.2275795 -13.87650524 15.2275795 -18.0625 18.9375 C-19.0215625 19.9584375 -19.0215625 19.9584375 -20 21 C-20.99 21 -21.98 21 -23 21 C-22.62972862 18.54618406 -22.39837497 17.32893691 -20.44946289 15.71972656 C-19.4709436 15.18557129 -19.4709436 15.18557129 -18.47265625 14.640625 C-17.76302734 14.24746094 -17.05339844 13.85429688 -16.32226562 13.44921875 C-15.57654297 13.05347656 -14.83082031 12.65773438 -14.0625 12.25 C-13.32064453 11.83878906 -12.57878906 11.42757812 -11.81445312 11.00390625 C-6.31061825 8 -6.31061825 8 -4 8 C-4.33 7.01 -4.66 6.02 -5 5 C-4.67 4.34 -4.34 3.68 -4 3 C-3.34 3 -2.68 3 -2 3 C-2 2.34 -2 1.68 -2 1 C-1.34 0.67 -0.68 0.34 0 0 Z " fill="#1E1E1E" transform="translate(121,30)"/>
<path d="M0 0 C1.19882813 0.15275391 1.19882813 0.15275391 2.421875 0.30859375 C3.02515625 0.39238281 3.6284375 0.47617187 4.25 0.5625 C0.57993682 5.06666844 -4.49908096 7.33040201 -9.75 9.5625 C-10.41 9.5625 -11.07 9.5625 -11.75 9.5625 C-11.440625 8.82 -11.13125 8.0775 -10.8125 7.3125 C-9.9405075 5.05557824 -9.27332993 2.9174847 -8.75 0.5625 C-5.62819599 -0.40411363 -3.22916205 -0.42738909 0 0 Z " fill="#D0CFCF" transform="translate(95.75,38.4375)"/>
<path d="M0 0 C0.99 0 1.98 0 3 0 C1.426096 4.85287068 -0.32282028 9.63205161 -2.09765625 14.4140625 C-2.86090626 16.60138504 -3.48620689 18.74354777 -4 21 C-5.32 20.34 -6.64 19.68 -8 19 C-7.38188466 14.44684052 -5.53234107 10.71540233 -3.4375 6.6875 C-2.9434668 5.71973633 -2.9434668 5.71973633 -2.43945312 4.73242188 C-1.63175745 3.15214772 -0.81662387 1.57567895 0 0 Z " fill="#2B2A2A" transform="translate(51,100)"/>
<path d="M0 0 C1.47521552 8.29808728 1.47521552 8.29808728 -0.53125 11.26171875 C-1.50578125 12.46248047 -1.50578125 12.46248047 -2.5 13.6875 C-3.1496875 14.49574219 -3.799375 15.30398437 -4.46875 16.13671875 C-5.22671875 17.05904297 -5.22671875 17.05904297 -6 18 C-6.33 17.34 -6.66 16.68 -7 16 C-6.06553465 13.96855359 -5.06775224 11.96466413 -4 10 C-4.99 10.495 -4.99 10.495 -6 11 C-5.67 9.02 -5.34 7.04 -5 5 C-5.99 4.67 -6.98 4.34 -8 4 C-1.125 0 -1.125 0 0 0 Z " fill="#979191" transform="translate(67,86)"/>
<path d="M0 0 C1.30517578 0.00773437 1.30517578 0.00773437 2.63671875 0.015625 C3.54292969 0.03625 4.44914063 0.056875 5.3828125 0.078125 C6.28128906 0.08328125 7.17976563 0.0884375 8.10546875 0.09375 C12.349501 0.14390105 16.37401492 0.2557591 20.5078125 1.328125 C20.5078125 1.658125 20.5078125 1.988125 20.5078125 2.328125 C19.63044434 2.34999878 19.63044434 2.34999878 18.73535156 2.37231445 C16.07551853 2.4469607 13.41691802 2.54356399 10.7578125 2.640625 C9.83742188 2.66318359 8.91703125 2.68574219 7.96875 2.70898438 C7.07929688 2.74443359 6.18984375 2.77988281 5.2734375 2.81640625 C4.04802246 2.85568237 4.04802246 2.85568237 2.79785156 2.89575195 C0.04374175 3.41574433 -1.33276932 4.59314617 -3.4921875 6.328125 C-4.1521875 6.328125 -4.8121875 6.328125 -5.4921875 6.328125 C-5.4921875 6.988125 -5.4921875 7.648125 -5.4921875 8.328125 C-6.1521875 8.328125 -6.8121875 8.328125 -7.4921875 8.328125 C-7.8579067 3.81758815 -7.8579067 3.81758815 -6.26123047 1.68066406 C-4.01763783 -0.03469658 -2.80187012 -0.03313119 0 0 Z " fill="#8E8787" transform="translate(11.4921875,55.671875)"/>
<path d="M0 0 C0.99 0.33 1.98 0.66 3 1 C2.38511719 1.68835938 2.38511719 1.68835938 1.7578125 2.390625 C1.21898437 3.00421875 0.68015625 3.6178125 0.125 4.25 C-0.40867187 4.85328125 -0.94234375 5.4565625 -1.4921875 6.078125 C-3.06498718 7.9391915 -3.06498718 7.9391915 -4.0078125 10.109375 C-5 12 -5 12 -8 14 C-10.6875 14.125 -10.6875 14.125 -13 14 C-10.81781061 9.91836336 -8.29492732 7.21766403 -4.8125 4.1875 C-3.91144531 3.39730469 -3.01039062 2.60710937 -2.08203125 1.79296875 C-1.39496094 1.20128906 -0.70789062 0.60960938 0 0 Z " fill="#222222" transform="translate(59,108)"/>
<path d="M0 0 C5.62904904 0.52884378 9.85259379 2.68738947 14.75 5.3125 C15.90048828 5.8993457 15.90048828 5.8993457 17.07421875 6.49804688 C17.80769531 6.88669922 18.54117188 7.27535156 19.296875 7.67578125 C19.96041992 8.02552002 20.62396484 8.37525879 21.30761719 8.7355957 C23.33282277 10.24865683 24.04231958 11.68885066 25 14 C20.35019139 12.32570492 16.20810507 9.95041134 11.9375 7.5 C10.5304351 6.69706233 9.12289746 5.8949524 7.71484375 5.09375 C7.09730225 4.73990234 6.47976074 4.38605469 5.84350586 4.02148438 C3.92171634 2.95662312 1.97148564 1.96927066 0 1 C0 0.67 0 0.34 0 0 Z " fill="#2C2C2C" transform="translate(19,73)"/>
<path d="M0 0 C4.07525826 3.65286355 5.88100719 8.50537181 8.1875 13.375 C8.65091797 14.32117188 9.11433594 15.26734375 9.59179688 16.2421875 C10.02943359 17.16 10.46707031 18.0778125 10.91796875 19.0234375 C11.31781982 19.85794434 11.7176709 20.69245117 12.12963867 21.55224609 C13.06834831 24.19221883 13.16527452 26.21979107 13 29 C10 28 10 28 8.875 25.875 C8 23 8 23 7.66796875 19.77734375 C6.91595542 15.52473033 5.47443376 12.44271847 3.4375 8.6875 C0 2.22284736 0 2.22284736 0 0 Z " fill="#585858" transform="translate(104,69)"/>
<path d="M0 0 C0 0.66 0 1.32 0 2 C-8.07562173 3.43794854 -15.7943963 4.29599372 -24 4 C-24 3.34 -24 2.68 -24 2 C-21.12543208 1.66252452 -18.25043941 1.32989537 -15.375 1 C-14.16263672 0.85691406 -14.16263672 0.85691406 -12.92578125 0.7109375 C-8.59026261 0.21746383 -4.37262689 -0.11320717 0 0 Z " fill="#807A7A" transform="translate(89,29)"/>
<path d="M0 0 C3.6600539 5.49008084 6.47700909 12.42016036 5.58984375 19.078125 C4.85504209 21.4705025 4.04622138 23.72805847 3 26 C2.34 26 1.68 26 1 26 C1.01160156 24.96359375 1.02320313 23.9271875 1.03515625 22.859375 C1.04453837 21.48958514 1.05363812 20.11979332 1.0625 18.75 C1.07087891 18.06808594 1.07925781 17.38617188 1.08789062 16.68359375 C1.10443034 13.27641192 0.93495642 10.27234746 0 7 C-0.03888349 4.66699067 -0.0448635 2.33290199 0 0 Z " fill="#969090" transform="translate(50,34)"/>
<path d="M0 0 C0 3 0 3 -1 6 C0.32 5.01 1.64 4.02 3 3 C2.67 3.598125 2.34 4.19625 2 4.8125 C0.79212012 7.05386471 0.79212012 7.05386471 1 10 C-0.75 11.60546875 -0.75 11.60546875 -3 13.1875 C-3.7425 13.71730469 -4.485 14.24710938 -5.25 14.79296875 C-5.8275 15.19128906 -6.405 15.58960937 -7 16 C-6.34031833 12.53978295 -5.56997496 9.14378105 -4.625 5.75 C-4.39039063 4.87859375 -4.15578125 4.0071875 -3.9140625 3.109375 C-3.61242188 2.41328125 -3.31078125 1.7171875 -3 1 C-2.01 0.67 -1.02 0.34 0 0 Z " fill="#C5C5C5" transform="translate(63,95)"/>
<path d="M0 0 C2.42604752 2.42604752 2.75843519 4.14192776 3.625 7.4375 C3.88539062 8.40558594 4.14578125 9.37367187 4.4140625 10.37109375 C5 13 5 13 5 16 C4.01 15.67 3.02 15.34 2 15 C1.26953125 13.15234375 1.26953125 13.15234375 0.8125 10.9375 C0.65394531 10.20402344 0.49539062 9.47054688 0.33203125 8.71484375 C0.22246094 8.14894531 0.11289062 7.58304688 0 7 C-0.66 7.66 -1.32 8.32 -2 9 C-2.33 6.69 -2.66 4.38 -3 2 C-2.01 1.34 -1.02 0.68 0 0 Z " fill="#2A2A2A" transform="translate(56,6)"/>
<path d="M0 0 C-3.49195321 3.49195321 -8.21748172 2.98072615 -12.96484375 3.09765625 C-14.27582031 3.08605469 -15.58679688 3.07445312 -16.9375 3.0625 C-17.62134766 3.05798828 -18.30519531 3.05347656 -19.00976562 3.04882812 C-20.67321604 3.0371956 -22.3366205 3.01926694 -24 3 C-23.67 2.34 -23.34 1.68 -23 1 C-15.36966266 -0.29327751 -7.719058 -0.09882151 0 0 Z " fill="#222222" transform="translate(115,30)"/>
<path d="M0 0 C0.66 0 1.32 0 2 0 C1.6784528 7.07403834 -1.41663627 12.97386577 -5 19 C-5.66 19.33 -6.32 19.66 -7 20 C-5.07443364 13.14381674 -2.7527517 6.56747868 0 0 Z " fill="#837D7D" transform="translate(50,95)"/>
<path d="M0 0 C0.66 0 1.32 0 2 0 C3.36878548 2.74356126 4.72013177 5.49355105 6.0625 8.25 C6.45244141 9.02730469 6.84238281 9.80460937 7.24414062 10.60546875 C7.60830078 11.35957031 7.97246094 12.11367187 8.34765625 12.890625 C8.68804932 13.58188477 9.02844238 14.27314453 9.37915039 14.98535156 C10.11635505 17.37757053 9.80784795 18.66570847 9 21 C7.49373883 17.87797994 5.99606757 14.75191601 4.5 11.625 C4.07074219 10.73554687 3.64148438 9.84609375 3.19921875 8.9296875 C2.59013672 7.65351562 2.59013672 7.65351562 1.96875 6.3515625 C1.59169922 5.56604004 1.21464844 4.78051758 0.82617188 3.97119141 C0 2 0 2 0 0 Z " fill="#3C3C3C" transform="translate(103,71)"/>
<path d="M0 0 C1.76171875 0.84375 1.76171875 0.84375 2.76171875 2.84375 C1.74980469 2.88371094 0.73789063 2.92367187 -0.3046875 2.96484375 C-5.17514264 3.66062306 -7.81308816 6.528114 -11.17578125 9.90625 C-11.76423828 10.47408203 -12.35269531 11.04191406 -12.95898438 11.62695312 C-14.39824757 13.01941101 -15.82009631 14.42983028 -17.23828125 15.84375 C-17.89828125 15.51375 -18.55828125 15.18375 -19.23828125 14.84375 C-15.38670586 10.76261051 -11.3453401 6.95754174 -7.05078125 3.34375 C-6.23222656 2.6528125 -5.41367188 1.961875 -4.5703125 1.25 C-2.23828125 -0.15625 -2.23828125 -0.15625 0 0 Z " fill="#605E5E" transform="translate(92.23828125,84.15625)"/>
<path d="M0 0 C5.33595134 -0.27131956 8.61383821 -0.4266889 13 3 C13 3.33 13 3.66 13 4 C10.03 3.67 7.06 3.34 4 3 C3.67 3.99 3.34 4.98 3 6 C1.5 4.6875 1.5 4.6875 0 3 C0 2.01 0 1.02 0 0 Z " fill="#6B6A6A" transform="translate(81,71)"/>
<path d="M0 0 C0.33 0 0.66 0 1 0 C0.48517081 5.852795 -0.45357192 11.3297637 -2 17 C-2.66 17 -3.32 17 -4 17 C-3.88487847 15.27014758 -3.75744323 13.54111249 -3.625 11.8125 C-3.55539063 10.84957031 -3.48578125 9.88664062 -3.4140625 8.89453125 C-2.95867112 5.71108774 -2.35219998 2.35219998 0 0 Z " fill="#837D7D" transform="translate(41,32)"/>
<path d="M0 0 C-1.20381448 2.49361571 -2.45428722 4.68143083 -4 7 C-4.39387788 9.32387947 -4.73486085 11.65793749 -5 14 C-7.43901956 12.17073533 -7.96732602 11.16700032 -8.5625 8.125 C-7.95496844 4.74982468 -7.59785608 4.25322822 -5.125 2.125 C-2 0 -2 0 0 0 Z " fill="#717070" transform="translate(82,45)"/>
<path d="M0 0 C0.33 0 0.66 0 1 0 C2.03590199 5.05002222 2.10251672 9.87416389 2 15 C1.01 15 0.02 15 -1 15 C-2.18609365 9.3067505 -1.66251802 5.57432514 0 0 Z " fill="#BFBDBD" transform="translate(52,22)"/>
<path d="M0 0 C4.50419983 0.85409827 7.03017333 3.47747469 10.25 6.5625 C10.80429688 7.08263672 11.35859375 7.60277344 11.9296875 8.13867188 C13.29256828 9.41930985 14.64711683 10.7088049 16 12 C12.05614953 12 11.03858557 10.64012796 8.0625 8.125 C5.14155583 5.6666488 2.50397715 3.5446767 -1 2 C-0.67 1.34 -0.34 0.68 0 0 Z " fill="#212121" transform="translate(90,81)"/>
<path d="M0 0 C0.66 0.33 1.32 0.66 2 1 C1.53439347 5.74918662 0.83067342 9.10782405 -2 13 C-2.33 13 -2.66 13 -3 13 C-3.27429625 7.60550707 -3.36055646 4.48074195 0 0 Z " fill="#666565" transform="translate(70,80)"/>
<path d="M0 0 C-1.06541016 0.56267578 -1.06541016 0.56267578 -2.15234375 1.13671875 C-3.07144531 1.64847656 -3.99054688 2.16023438 -4.9375 2.6875 C-5.85402344 3.18636719 -6.77054687 3.68523438 -7.71484375 4.19921875 C-10.23011783 5.82742443 -10.23011783 5.82742443 -10.81640625 8.70703125 C-10.87699219 9.46371094 -10.93757813 10.22039063 -11 11 C-11.66 10.67 -12.32 10.34 -13 10 C-13.625 7.4375 -13.625 7.4375 -14 5 C-12.23628182 3.96692229 -10.46374967 2.94887951 -8.6875 1.9375 C-7.70136719 1.36902344 -6.71523437 0.80054688 -5.69921875 0.21484375 C-3 -1 -3 -1 0 0 Z " fill="#2C2C2C" transform="translate(106,42)"/>
<path d="M0 0 C1.32 0.33 2.64 0.66 4 1 C3 4 3 4 0.27734375 5.60546875 C-0.82480469 6.12753906 -1.92695312 6.64960937 -3.0625 7.1875 C-4.16722656 7.71730469 -5.27195312 8.24710938 -6.41015625 8.79296875 C-7.26480469 9.19128906 -8.11945313 9.58960938 -9 10 C-8.44811321 6.33608491 -8.44811321 6.33608491 -6.40625 4.8046875 C-5.7771875 4.49789062 -5.148125 4.19109375 -4.5 3.875 C-0.96744249 2.41591483 -0.96744249 2.41591483 0 0 Z " fill="#ECEBEB" transform="translate(100,38)"/>
<path d="M0 0 C1.41548199 2.77434469 2.70359625 5.57821301 3.9375 8.4375 C5.10360989 11.10289403 6.27832529 13.45107891 7.8125 15.9375 C8.204375 16.618125 8.59625 17.29875 9 18 C8.67 18.66 8.34 19.32 8 20 C6.85252535 18.37615858 5.7070709 16.75088944 4.5625 15.125 C3.92441406 14.22007813 3.28632812 13.31515625 2.62890625 12.3828125 C-0.3856056 7.97309492 -0.08503496 5.27216744 0 0 Z " fill="#C7C7C7" transform="translate(83,48)"/>
<path d="M0 0 C-4.95 0.33 -9.9 0.66 -15 1 C-14.67 0.01 -14.34 -0.98 -14 -2 C-8.55417584 -4.2186691 -4.58628181 -3.43971135 0 0 Z " fill="#353535" transform="translate(96,34)"/>
<path d="M0 0 C0.79921875 0.00902344 1.5984375 0.01804687 2.421875 0.02734375 C3.02515625 0.03894531 3.6284375 0.05054687 4.25 0.0625 C3.92 1.0525 3.59 2.0425 3.25 3.0625 C-0.71 3.0625 -4.67 3.0625 -8.75 3.0625 C-8.75 2.4025 -8.75 1.7425 -8.75 1.0625 C-5.75519083 0.1901588 -3.11424089 -0.04579766 0 0 Z " fill="#787272" transform="translate(97.75,27.9375)"/>
<path d="M0 0 C1.875 0.8125 1.875 0.8125 2.875 2.8125 C-0.875 5.8125 -0.875 5.8125 -3.125 5.8125 C-3.125 6.4725 -3.125 7.1325 -3.125 7.8125 C-3.785 7.8125 -4.445 7.8125 -5.125 7.8125 C-5.35553497 4.96923536 -5.48403101 3.35104651 -3.875 0.9375 C-2.125 -0.1875 -2.125 -0.1875 0 0 Z " fill="#7C7979" transform="translate(9.125,56.1875)"/>
<path d="M0 0 C0.66 0.66 1.32 1.32 2 2 C0.90398831 3.00893131 -0.20213918 4.00688225 -1.3125 5 C-2.23482422 5.8353125 -2.23482422 5.8353125 -3.17578125 6.6875 C-5 8 -5 8 -8 8 C-7.9375 6.25 -7.9375 6.25 -7 4 C-4.75835678 2.40498463 -2.46433357 1.25456982 0 0 Z " fill="#171717" transform="translate(106,43)"/>
<path d="M0 0 C2.63955332 1.31977666 2.8610609 2.56281557 4 5.25 C4.51820312 6.46236328 4.51820312 6.46236328 5.046875 7.69921875 C6.05183279 10.12512096 7.05206352 12.5511641 8 15 C5.5625 14.3125 5.5625 14.3125 3 13 C2.3125 10.625 2.3125 10.625 2 8 C1.649375 7.319375 1.29875 6.63875 0.9375 5.9375 C0 4 0 4 0 0 Z " fill="#6D6B6B" transform="translate(79,52)"/>
<path d="M0 0 C0 0.66 0 1.32 0 2 C-0.66 2 -1.32 2 -2 2 C-2.33 2.66 -2.66 3.32 -3 4 C-4.65 3.67 -6.3 3.34 -8 3 C-8 2.67 -8 2.34 -8 2 C-10.31 1.67 -12.62 1.34 -15 1 C-15 0.67 -15 0.34 -15 0 C-12.87562788 -0.19448477 -10.75046809 -0.38038289 -8.625 -0.5625 C-7.44164063 -0.66691406 -6.25828125 -0.77132813 -5.0390625 -0.87890625 C-2 -1 -2 -1 0 0 Z " fill="#656464" transform="translate(121,29)"/>
<path d="M0 0 C0.99 0.33 1.98 0.66 3 1 C2.67 3.31 2.34 5.62 2 8 C0.68 7.34 -0.64 6.68 -2 6 C-1.125 1.125 -1.125 1.125 0 0 Z " fill="#4B4B4B" transform="translate(45,113)"/>
<path d="M0 0 C0.66 0.33 1.32 0.66 2 1 C2.4140625 3.28515625 2.4140625 3.28515625 2.625 6.0625 C2.69976562 6.98160156 2.77453125 7.90070312 2.8515625 8.84765625 C2.92503906 9.91306641 2.92503906 9.91306641 3 11 C2.01 11 1.02 11 0 11 C-1.125 3.375 -1.125 3.375 0 0 Z " fill="#4B4B4B" transform="translate(55,12)"/>
<path d="M0 0 C1.32 0.33 2.64 0.66 4 1 C4 2.65 4 4.3 4 6 C2.125 6.625 2.125 6.625 0 7 C-0.66 6.34 -1.32 5.68 -2 5 C-1.34 5 -0.68 5 0 5 C0 3.35 0 1.7 0 0 Z " fill="#D0CFCF" transform="translate(89,75)"/>
<path d="M0 0 C1.21816406 0.03480469 1.21816406 0.03480469 2.4609375 0.0703125 C3.68683594 0.09738281 3.68683594 0.09738281 4.9375 0.125 C5.87722656 0.15980469 5.87722656 0.15980469 6.8359375 0.1953125 C6.8359375 1.1853125 6.8359375 2.1753125 6.8359375 3.1953125 C3.2059375 2.8653125 -0.4240625 2.5353125 -4.1640625 2.1953125 C-2.1640625 0.1953125 -2.1640625 0.1953125 0 0 Z " fill="#373737" transform="translate(14.1640625,57.8046875)"/>
<path d="M0 0 C9.59453303 2.89066059 9.59453303 2.89066059 13 6 C8.24967963 5.53428232 4.87839357 4.85175998 1 2 C0.67 1.34 0.34 0.68 0 0 Z " fill="#676666" transform="translate(48,74)"/>
<path d="M0 0 C-0.33 0.99 -0.66 1.98 -1 3 C-4.3 3 -7.6 3 -11 3 C-10 1 -10 1 -8.3125 0.375 C-5.51555886 -0.07855802 -2.82858003 -0.06428591 0 0 Z " fill="#1F1E1E" transform="translate(82,32)"/>
<path d="M0 0 C-5.5 4 -5.5 4 -10 4 C-9.67 3.01 -9.34 2.02 -9 1 C-2.63157895 -1.31578947 -2.63157895 -1.31578947 0 0 Z " fill="#9C9696" transform="translate(100,40)"/>
<path d="M0 0 C1.32 0.99 2.64 1.98 4 3 C-1.75 6 -1.75 6 -4 6 C-3.6875 4.125 -3.6875 4.125 -3 2 C-2.01 1.34 -1.02 0.68 0 0 Z " fill="#C9C9C9" transform="translate(88,42)"/>
<path d="M0 0 C0.33 0 0.66 0 1 0 C0.67 3.3 0.34 6.6 0 10 C-0.33 9.34 -0.66 8.68 -1 8 C-1.66 8 -2.32 8 -3 8 C-1.125 1.125 -1.125 1.125 0 0 Z " fill="#383737" transform="translate(43,35)"/>
<path d="M0 0 C3.16115776 1.36983503 3.9927092 1.9890638 6 5 C5.67 5.99 5.34 6.98 5 8 C2.21611025 6.29374499 1.14615794 5.52373261 0.25 2.3125 C0.1675 1.549375 0.085 0.78625 0 0 Z " fill="#E6E6E6" transform="translate(110,93)"/>
<path d="M0 0 C3.73487777 0.4979837 5.81237635 0.87491756 9 3 C9 3.66 9 4.32 9 5 C5.9168649 3.80100302 2.93720508 2.52299523 0 1 C0 0.67 0 0.34 0 0 Z " fill="#262626" transform="translate(19,73)"/>
<path d="M0 0 C0.66 0.33 1.32 0.66 2 1 C1.34 1.66 0.68 2.32 0 3 C-0.64767793 5.57061311 -0.64767793 5.57061311 -1 8 C-1.99 7.67 -2.98 7.34 -4 7 C-3.39816251 4.97954558 -2.72693904 2.97888961 -2 1 C-1.34 0.67 -0.68 0.34 0 0 Z " fill="#7D7878" transform="translate(98,46)"/>
<path d="M0 0 C1.485 0.99 1.485 0.99 3 2 C3.1875 4.625 3.1875 4.625 3 7 C2.01 6.67 1.02 6.34 0 6 C-1 3 -1 3 0 0 Z " fill="#606060" transform="translate(114,91)"/>
<path d="M0 0 C0.33 0 0.66 0 1 0 C0.67 2.64 0.34 5.28 0 8 C-0.66 8 -1.32 8 -2 8 C-2.125 5.125 -2.125 5.125 -2 2 C-1.34 1.34 -0.68 0.68 0 0 Z " fill="#8A8383" transform="translate(39,41)"/>
<path d="M0 0 C2.375 0.3125 2.375 0.3125 5 1 C5.66 1.99 6.32 2.98 7 4 C6.01 4.495 6.01 4.495 5 5 C3.35 3.35 1.7 1.7 0 0 Z " fill="#3F3F3F" transform="translate(104,94)"/>
</svg>
